<svg width="24" height="24" viewBox="0 0 24 24" fill="none" xmlns="http://www.w3.org/2000/svg">
<path d="M21.5 6.75V17.25C21.5 17.8467 21.2629 18.419 20.841 18.841C20.419 19.2629 19.8467 19.5 19.25 19.5H4.25C3.65326 19.5 3.08097 19.2629 2.65901 18.841C2.23705 18.419 2 17.8467 2 17.25V6.75M21.5 6.75C21.5 6.15326 21.2629 5.58097 20.841 5.15901C20.419 4.73705 19.8467 4.5 19.25 4.5H4.25C3.65326 4.5 3.08097 4.73705 2.65901 5.15901C2.23705 5.58097 2 6.15326 2 6.75M21.5 6.75V6.993C21.5 7.37715 21.4017 7.75491 21.2144 8.0903C21.0271 8.42569 20.7571 8.70754 20.43 8.909L12.93 13.524C12.5752 13.7425 12.1667 13.8582 11.75 13.8582C11.3333 13.8582 10.9248 13.7425 10.57 13.524L3.07 8.91C2.74292 8.70854 2.47287 8.42669 2.28557 8.0913C2.09827 7.75591 1.99996 7.37815 2 6.994V6.75" stroke="#1BA0A2" stroke-width="1.5" stroke-linecap="round" stroke-linejoin="round"/>
</svg>
