<svg width="26" height="26" viewBox="0 0 26 26" fill="none" xmlns="http://www.w3.org/2000/svg">
<path d="M10.3935 4.26833C10.491 3.68117 11.0002 3.25 11.596 3.25H14.4051C15.0009 3.25 15.5101 3.68117 15.6076 4.26833L15.8383 5.65608C15.9066 6.06125 16.1774 6.39925 16.5371 6.59858C16.6172 6.64192 16.6963 6.6885 16.7754 6.73617C17.1264 6.9485 17.5554 7.01458 17.94 6.8705L19.2584 6.3765C19.5286 6.27489 19.8261 6.27248 20.0979 6.36969C20.3696 6.4669 20.5981 6.65742 20.7426 6.90733L22.1466 9.34158C22.2907 9.59151 22.3415 9.88448 22.2899 10.1683C22.2384 10.4522 22.0878 10.7086 21.8649 10.8918L20.7783 11.7877C20.4609 12.0477 20.3038 12.4518 20.3114 12.8624C20.3131 12.9545 20.3131 13.0466 20.3114 13.1387C20.3038 13.5482 20.4609 13.9512 20.7772 14.2112L21.866 15.1082C22.3253 15.4873 22.4445 16.1417 22.1477 16.6573L20.7415 19.0916C20.5972 19.3414 20.369 19.532 20.0975 19.6294C19.8259 19.7268 19.5286 19.7247 19.2584 19.6235L17.94 19.1295C17.5554 18.9854 17.1275 19.0515 16.7743 19.2638C16.6958 19.3116 16.6163 19.3578 16.536 19.4025C16.1774 19.6008 15.9066 19.9387 15.8383 20.3439L15.6076 21.7306C15.5101 22.3188 15.0009 22.75 14.4051 22.75H11.5949C10.9991 22.75 10.4899 22.3188 10.3924 21.7317L10.1617 20.3439C10.0945 19.9387 9.82366 19.6008 9.46399 19.4014C9.38366 19.3571 9.3042 19.3112 9.22566 19.2638C8.87357 19.0515 8.44566 18.9854 8.05999 19.1295L6.74157 19.6235C6.47153 19.7248 6.1743 19.7271 5.90275 19.6299C5.63119 19.5327 5.40291 19.3423 5.25849 19.0927L3.85341 16.6584C3.70926 16.4085 3.65846 16.1155 3.71003 15.8317C3.76161 15.5478 3.91222 15.2914 4.13507 15.1082L5.22274 14.2123C5.53907 13.9523 5.69616 13.5482 5.68857 13.1376C5.68688 13.0455 5.68688 12.9534 5.68857 12.8613C5.69616 12.4518 5.53907 12.0488 5.22274 11.7888L4.13507 10.8918C3.91249 10.7086 3.76205 10.4525 3.71048 10.1688C3.65892 9.88521 3.70955 9.59249 3.85341 9.34267L5.25849 6.90842C5.40277 6.65831 5.63117 6.46756 5.90298 6.37015C6.17479 6.27273 6.47235 6.27498 6.74266 6.3765L8.05999 6.8705C8.44566 7.01458 8.87357 6.9485 9.22566 6.73617C9.30366 6.6885 9.38382 6.64192 9.46399 6.5975C9.82366 6.39925 10.0945 6.06125 10.1617 5.65608L10.3935 4.26833V4.26833Z" stroke="#A0A0A0" stroke-width="1.5" stroke-linecap="round" stroke-linejoin="round"/>
<path d="M16.25 13C16.25 13.862 15.9076 14.6886 15.2981 15.2981C14.6886 15.9076 13.862 16.25 13 16.25C12.138 16.25 11.3114 15.9076 10.7019 15.2981C10.0924 14.6886 9.75 13.862 9.75 13C9.75 12.138 10.0924 11.3114 10.7019 10.7019C11.3114 10.0924 12.138 9.75 13 9.75C13.862 9.75 14.6886 10.0924 15.2981 10.7019C15.9076 11.3114 16.25 12.138 16.25 13V13Z" stroke="#A0A0A0" stroke-width="1.5" stroke-linecap="round" stroke-linejoin="round"/>
</svg>
